<?xml version="1.0" encoding="UTF-8" standalone="no"?>
<!DOCTYPE svg PUBLIC "-//W3C//DTD SVG 1.1//EN"
 "http://www.w3.org/Graphics/SVG/1.1/DTD/svg11.dtd">
<!-- Generated by graphviz version 2.47.0 (20210316.0004)
 -->
<!-- Title: dependencies Pages: 1 -->
<svg width="934pt" height="211pt"
 viewBox="0.00 0.00 934.00 211.00" xmlns="http://www.w3.org/2000/svg" xmlns:xlink="http://www.w3.org/1999/xlink">
<g id="graph0" class="graph" transform="scale(1 1) rotate(0) translate(4 207)">
<title>dependencies</title>
<polygon fill="white" stroke="transparent" points="-4,4 -4,-207 930,-207 930,4 -4,4"/>
<text text-anchor="start" x="442.01" y="-42.4" font-family="Times-12" font-weight="bold" font-size="14.00">Legend</text>
<polygon fill="#ffffb3" stroke="transparent" points="229,-10 229,-30 249,-30 249,-10 229,-10"/>
<text text-anchor="start" x="252.63" y="-15.4" font-family="Times-12" font-size="14.00"> &#160;Declarations</text>
<polygon fill="#8dd3c7" stroke="transparent" points="342,-10 342,-30 362,-30 362,-10 342,-10"/>
<text text-anchor="start" x="365.73" y="-15.4" font-family="Times-12" font-size="14.00"> &#160;Module</text>
<polygon fill="#80b1d3" stroke="transparent" points="428,-10 428,-30 448,-30 448,-10 428,-10"/>
<text text-anchor="start" x="451.78" y="-15.4" font-family="Times-12" font-size="14.00"> &#160;Bootstrap</text>
<polygon fill="#fdb462" stroke="transparent" points="525,-10 525,-30 545,-30 545,-10 525,-10"/>
<text text-anchor="start" x="548.67" y="-15.4" font-family="Times-12" font-size="14.00"> &#160;Providers</text>
<polygon fill="#fb8072" stroke="transparent" points="621,-10 621,-30 641,-30 641,-10 621,-10"/>
<text text-anchor="start" x="644.73" y="-15.4" font-family="Times-12" font-size="14.00"> &#160;Exports</text>
<g id="clust1" class="cluster">
<title>cluster_AppModule</title>
<polygon fill="none" stroke="black" stroke-dasharray="1,5" points="8,-70 8,-195 918,-195 918,-70 8,-70"/>
</g>
<g id="clust6" class="cluster">
<title>cluster_AppModule_providers</title>
<polygon fill="none" stroke="black" points="16,-78 16,-130 910,-130 910,-78 16,-78"/>
</g>
<!-- AppConfigService -->
<g id="node1" class="node">
<title>AppConfigService</title>
<ellipse fill="#fdb462" stroke="black" cx="819" cy="-104" rx="83.39" ry="18"/>
<text text-anchor="middle" x="819" y="-99.8" font-family="Times,serif" font-size="14.00">AppConfigService</text>
</g>
<!-- AppModule -->
<g id="node7" class="node">
<title>AppModule</title>
<polygon fill="#8dd3c7" stroke="black" points="487.66,-187 484.66,-191 463.66,-191 460.66,-187 404.34,-187 404.34,-151 487.66,-151 487.66,-187"/>
<text text-anchor="middle" x="446" y="-164.8" font-family="Times,serif" font-size="14.00">AppModule</text>
</g>
<!-- AppConfigService&#45;&gt;AppModule -->
<g id="edge1" class="edge">
<title>AppConfigService&#45;&gt;AppModule</title>
<path fill="none" stroke="black" d="M819,-122.28C819,-143.32 819,-175 819,-175 819,-175 497.7,-175 497.7,-175"/>
<polygon fill="black" stroke="black" points="497.7,-171.5 487.7,-175 497.7,-178.5 497.7,-171.5"/>
</g>
<!-- AppService -->
<g id="node2" class="node">
<title>AppService</title>
<ellipse fill="#fdb462" stroke="black" cx="661" cy="-104" rx="56.74" ry="18"/>
<text text-anchor="middle" x="661" y="-99.8" font-family="Times,serif" font-size="14.00">AppService</text>
</g>
<!-- AppService&#45;&gt;AppModule -->
<g id="edge2" class="edge">
<title>AppService&#45;&gt;AppModule</title>
<path fill="none" stroke="black" d="M661,-122.02C661,-139.37 661,-163 661,-163 661,-163 497.71,-163 497.71,-163"/>
<polygon fill="black" stroke="black" points="497.71,-159.5 487.71,-163 497.71,-166.5 497.71,-159.5"/>
</g>
<!-- JwtAuthGuard -->
<g id="node3" class="node">
<title>JwtAuthGuard</title>
<ellipse fill="#fdb462" stroke="black" cx="518" cy="-104" rx="67.78" ry="18"/>
<text text-anchor="middle" x="518" y="-99.8" font-family="Times,serif" font-size="14.00">JwtAuthGuard</text>
</g>
<!-- JwtAuthGuard&#45;&gt;AppModule -->
<g id="edge3" class="edge">
<title>JwtAuthGuard&#45;&gt;AppModule</title>
<path fill="none" stroke="black" d="M468.97,-116.53C468.97,-116.53 468.97,-140.85 468.97,-140.85"/>
<polygon fill="black" stroke="black" points="465.47,-140.85 468.97,-150.85 472.47,-140.85 465.47,-140.85"/>
</g>
<!-- JwtStrategy -->
<g id="node4" class="node">
<title>JwtStrategy</title>
<ellipse fill="#fdb462" stroke="black" cx="375" cy="-104" rx="56.76" ry="18"/>
<text text-anchor="middle" x="375" y="-99.8" font-family="Times,serif" font-size="14.00">JwtStrategy</text>
</g>
<!-- JwtStrategy&#45;&gt;AppModule -->
<g id="edge4" class="edge">
<title>JwtStrategy&#45;&gt;AppModule</title>
<path fill="none" stroke="black" d="M417.9,-115.92C417.9,-115.92 417.9,-140.77 417.9,-140.77"/>
<polygon fill="black" stroke="black" points="414.4,-140.77 417.9,-150.77 421.4,-140.77 414.4,-140.77"/>
</g>
<!-- Logger -->
<g id="node5" class="node">
<title>Logger</title>
<ellipse fill="#fdb462" stroke="black" cx="261" cy="-104" rx="38.85" ry="18"/>
<text text-anchor="middle" x="261" y="-99.8" font-family="Times,serif" font-size="14.00">Logger</text>
</g>
<!-- Logger&#45;&gt;AppModule -->
<g id="edge5" class="edge">
<title>Logger&#45;&gt;AppModule</title>
<path fill="none" stroke="black" d="M261,-122.02C261,-139.37 261,-163 261,-163 261,-163 394.02,-163 394.02,-163"/>
<polygon fill="black" stroke="black" points="394.02,-166.5 404.02,-163 394.02,-159.5 394.02,-166.5"/>
</g>
<!-- ResponseInterceptor -->
<g id="node6" class="node">
<title>ResponseInterceptor</title>
<ellipse fill="#fdb462" stroke="black" cx="114" cy="-104" rx="90.31" ry="18"/>
<text text-anchor="middle" x="114" y="-99.8" font-family="Times,serif" font-size="14.00">ResponseInterceptor</text>
</g>
<!-- ResponseInterceptor&#45;&gt;AppModule -->
<g id="edge6" class="edge">
<title>ResponseInterceptor&#45;&gt;AppModule</title>
<path fill="none" stroke="black" d="M114,-122.28C114,-143.32 114,-175 114,-175 114,-175 394.29,-175 394.29,-175"/>
<polygon fill="black" stroke="black" points="394.29,-178.5 404.29,-175 394.29,-171.5 394.29,-178.5"/>
</g>
</g>
</svg>
