<?xml version="1.0" encoding="UTF-8" standalone="no"?>
<!DOCTYPE svg PUBLIC "-//W3C//DTD SVG 1.1//EN"
 "http://www.w3.org/Graphics/SVG/1.1/DTD/svg11.dtd">
<!-- Generated by graphviz version 2.47.0 (20210316.0004)
 -->
<!-- Title: dependencies Pages: 1 -->
<svg width="504pt" height="211pt"
 viewBox="0.00 0.00 504.00 211.00" xmlns="http://www.w3.org/2000/svg" xmlns:xlink="http://www.w3.org/1999/xlink">
<g id="graph0" class="graph" transform="scale(1 1) rotate(0) translate(4 207)">
<title>dependencies</title>
<polygon fill="white" stroke="transparent" points="-4,4 -4,-207 500,-207 500,4 -4,4"/>
<text text-anchor="start" x="227.01" y="-42.4" font-family="Times-12" font-weight="bold" font-size="14.00">Legend</text>
<polygon fill="#ffffb3" stroke="transparent" points="14,-10 14,-30 34,-30 34,-10 14,-10"/>
<text text-anchor="start" x="37.63" y="-15.4" font-family="Times-12" font-size="14.00"> &#160;Declarations</text>
<polygon fill="#8dd3c7" stroke="transparent" points="127,-10 127,-30 147,-30 147,-10 127,-10"/>
<text text-anchor="start" x="150.73" y="-15.4" font-family="Times-12" font-size="14.00"> &#160;Module</text>
<polygon fill="#80b1d3" stroke="transparent" points="213,-10 213,-30 233,-30 233,-10 213,-10"/>
<text text-anchor="start" x="236.78" y="-15.4" font-family="Times-12" font-size="14.00"> &#160;Bootstrap</text>
<polygon fill="#fdb462" stroke="transparent" points="310,-10 310,-30 330,-30 330,-10 310,-10"/>
<text text-anchor="start" x="333.67" y="-15.4" font-family="Times-12" font-size="14.00"> &#160;Providers</text>
<polygon fill="#fb8072" stroke="transparent" points="406,-10 406,-30 426,-30 426,-10 406,-10"/>
<text text-anchor="start" x="429.73" y="-15.4" font-family="Times-12" font-size="14.00"> &#160;Exports</text>
<g id="clust1" class="cluster">
<title>cluster_AppModule</title>
<polygon fill="none" stroke="black" stroke-dasharray="1,5" points="127,-70 127,-195 369,-195 369,-70 127,-70"/>
</g>
<g id="clust6" class="cluster">
<title>cluster_AppModule_providers</title>
<polygon fill="none" stroke="black" points="135,-78 135,-130 361,-130 361,-78 135,-78"/>
</g>
<!-- AppService -->
<g id="node1" class="node">
<title>AppService</title>
<ellipse fill="#fdb462" stroke="black" cx="296" cy="-104" rx="56.74" ry="18"/>
<text text-anchor="middle" x="296" y="-99.8" font-family="Times,serif" font-size="14.00">AppService</text>
</g>
<!-- AppModule -->
<g id="node3" class="node">
<title>AppModule</title>
<polygon fill="#8dd3c7" stroke="black" points="280.66,-187 277.66,-191 256.66,-191 253.66,-187 197.34,-187 197.34,-151 280.66,-151 280.66,-187"/>
<text text-anchor="middle" x="239" y="-164.8" font-family="Times,serif" font-size="14.00">AppModule</text>
</g>
<!-- AppService&#45;&gt;AppModule -->
<g id="edge1" class="edge">
<title>AppService&#45;&gt;AppModule</title>
<path fill="none" stroke="black" d="M260.1,-118.1C260.1,-118.1 260.1,-140.72 260.1,-140.72"/>
<polygon fill="black" stroke="black" points="256.6,-140.72 260.1,-150.72 263.6,-140.72 256.6,-140.72"/>
</g>
<!-- Logger -->
<g id="node2" class="node">
<title>Logger</title>
<ellipse fill="#fdb462" stroke="black" cx="182" cy="-104" rx="38.85" ry="18"/>
<text text-anchor="middle" x="182" y="-99.8" font-family="Times,serif" font-size="14.00">Logger</text>
</g>
<!-- Logger&#45;&gt;AppModule -->
<g id="edge2" class="edge">
<title>Logger&#45;&gt;AppModule</title>
<path fill="none" stroke="black" d="M209.05,-117.15C209.05,-117.15 209.05,-140.69 209.05,-140.69"/>
<polygon fill="black" stroke="black" points="205.55,-140.69 209.05,-150.69 212.55,-140.69 205.55,-140.69"/>
</g>
</g>
</svg>
